<?xml version="1.0" encoding="utf-8"?>
<!-- Generator: Adobe Illustrator 18.0.0, SVG Export Plug-In . SVG Version: 6.00 Build 0)  -->
<!DOCTYPE svg PUBLIC "-//W3C//DTD SVG 1.1//EN" "http://www.w3.org/Graphics/SVG/1.1/DTD/svg11.dtd">
<svg version="1.1" id="Layer_1" xmlns="http://www.w3.org/2000/svg" xmlns:xlink="http://www.w3.org/1999/xlink" x="0px" y="0px"
	 viewBox="0 0 96.9 96.9" enable-background="new 0 0 96.9 96.9" xml:space="preserve">
<path fill="#808285" d="M96.9,78.7c0,10-8.1,18.2-18.2,18.2H18.2C8.1,96.9,0,88.8,0,78.7V18.2C0,8.1,8.1,0,18.2,0h60.6
	c10,0,18.2,8.1,18.2,18.2V78.7z M22.3,16.3c-5,0-8.3,3.3-8.3,7.6c0,4.2,3.2,7.6,8.1,7.6h0.1c5.1,0,8.3-3.4,8.3-7.6
	C30.4,19.6,27.3,16.3,22.3,16.3z M29.5,81.1V37.4H15v43.8H29.5z M82,81.1V56c0-13.4-7.2-19.7-16.8-19.7c-7.8,0-11.3,4.4-13.2,7.4
	h0.1v-6.4H37.5c0,0,0.2,4.1,0,43.8h14.6V56.7c0-1.3,0.1-2.6,0.4-3.5c1.1-2.6,3.5-5.3,7.5-5.3c5.2,0,7.3,4,7.3,9.9v23.4H82z"/>
</svg>
