<?xml version="1.0" encoding="utf-8"?>
<!-- Generator: Adobe Illustrator 18.0.0, SVG Export Plug-In . SVG Version: 6.00 Build 0)  -->
<!DOCTYPE svg PUBLIC "-//W3C//DTD SVG 1.1//EN" "http://www.w3.org/Graphics/SVG/1.1/DTD/svg11.dtd">
<svg version="1.1" id="Layer_1" xmlns="http://www.w3.org/2000/svg" xmlns:xlink="http://www.w3.org/1999/xlink" x="0px" y="0px"
	 viewBox="0 0 135.1 28.4" enable-background="new 0 0 135.1 28.4" xml:space="preserve">
<g>
	<path fill-rule="evenodd" clip-rule="evenodd" fill="#007B3C" d="M118.7,28.4c-8.3-0.5-14.3-6.8-14.3-14.4c0-8,6.6-14,15.4-14
		c8.8,0,15.4,6,15.4,14c0,7.5-5.8,13.8-13.9,14.4c-0.6,0.1-2.4-0.5-2.3-1.9c0.1-3.4,0-6.7,0-10c-1,3.1-1.3,6.9-4.2,6.9
		c-3.2-0.1-4.3-1.8-3.6-5c-4.8-0.7-3.9-6.5,0-6.9c2-0.2,4.6,1.4,6.7,1.5c-1.2-1.4-5-4.1-4.8-6.3c0.3-3.7,4.7-3.6,6.8-1.5
		c2.4-2.2,5-1.8,6.2,0.7c1.6,4.1-4.6,6-4.5,7c2.7-0.3,5.2-1.3,7-1.2c3.3,0.1,3.9,5.4-0.2,6.6c0.8,2.4-0.3,4.7-3.5,4.7
		c-4-0.1-4.1-5.5-4.6-6.6c0,2.4,0,6.4,0.1,8.8c-0.1,1.2,1,1.7,3.1,0.9c7.2-2.3,9.1-6.8,9.4-12c0-8.4-7.2-12.3-13.2-12.4
		c-6.4,0.1-13.1,4.9-13.4,12.2c-0.2,4.9,4,11.2,10.1,11.8c0.4,0,0.9,0,1.3-0.2C117.4,27,117.8,28.2,118.7,28.4"/>
	<path fill="#1D1D1B" d="M51.5,22.8h2c0.4,0,0.7,0,0.8,0.1c0.2,0.1,0.3,0.2,0.4,0.3c0.1,0.1,0.2,0.3,0.2,0.5c0,0.2,0,0.4-0.2,0.5
		c-0.1,0.2-0.2,0.3-0.4,0.4c-0.2,0.1-0.4,0.1-0.7,0.1l1,1.2c0.1,0.1,0.1,0.2,0.2,0.2c0.1,0.1,0.1,0.1,0.2,0.1c0.1,0,0.1,0,0.2,0h0.1
		v0.2h-0.9L53,24.8h-0.5V26c0,0.1,0,0.2,0,0.2c0,0.1,0.1,0.1,0.1,0.1c0,0,0.1,0,0.3,0H53v0.2h-1.5v-0.2h0.1c0.1,0,0.2,0,0.2,0
		c0,0,0.1,0,0.1-0.1c0,0,0-0.1,0.1-0.1c0,0,0-0.1,0-0.3v-2.5c0-0.1,0-0.2,0-0.2c0,0-0.1-0.1-0.1-0.1c0,0-0.1,0-0.2,0h-0.2V22.8z
		 M52.5,23.1v1.4h0.8c0.3,0,0.5,0,0.6,0c0.2,0,0.3-0.1,0.4-0.2c0.1-0.1,0.1-0.3,0.1-0.4c0-0.2,0-0.3-0.1-0.4
		c-0.1-0.1-0.2-0.2-0.3-0.2c-0.1-0.1-0.3-0.1-0.5-0.1H52.5z"/>
	<path fill="#1D1D1B" d="M57,22.8h0.4l1.2,3.2c0.1,0.2,0.1,0.3,0.2,0.3c0.1,0.1,0.1,0.1,0.2,0.1H59v0.2h-1.3v-0.2c0,0,0.1,0,0.1,0
		c0.1,0,0.1,0,0.2,0c0.1,0,0.1-0.1,0.1-0.1c0,0,0-0.1-0.1-0.3l-0.3-0.7h-1.4L56.1,26c0,0.1,0,0.1,0,0.2c0,0,0,0.1,0,0.1
		c0,0,0,0,0.1,0.1c0,0,0.1,0,0.2,0h0.1v0.2h-1.1v-0.2c0.1,0,0.2,0,0.2,0c0,0,0.1-0.1,0.1-0.1c0,0,0.1-0.1,0.1-0.3L57,22.8z
		 M56.5,24.9h1.2l-0.6-1.6L56.5,24.9z"/>
	<path fill="#1D1D1B" d="M59.3,22.8h1.5v0.2h-0.1c-0.1,0-0.2,0-0.2,0c0,0-0.1,0-0.1,0.1c0,0,0,0.1,0,0.2V26c0,0.1,0,0.2,0,0.2
		c0,0,0,0.1,0.1,0.1c0,0,0.1,0,0.2,0h0.2c0.2,0,0.4,0,0.6-0.1c0.2-0.1,0.3-0.2,0.4-0.3c0.1-0.1,0.2-0.3,0.4-0.6l0.2,0.1L62,26.6
		h-2.7v-0.2h0.1c0.1,0,0.2,0,0.2,0c0,0,0.1-0.1,0.1-0.1c0,0,0-0.1,0-0.2v-2.6c0-0.1,0-0.2,0-0.3c0,0,0-0.1-0.1-0.1c0,0-0.1,0-0.2,0
		h-0.1V22.8z"/>
	<path fill="#1D1D1B" d="M64.2,22.8h1.4v0.2h-0.2c-0.1,0-0.2,0-0.2,0c0,0,0,0,0,0.1c0,0,0,0.1,0.1,0.2c0,0,0,0,0,0.1l0.7,1.4
		l0.8-1.4c0-0.1,0.1-0.1,0.1-0.1c0,0,0,0,0-0.1c0,0,0,0,0-0.1c0,0,0,0-0.1,0c0,0-0.1,0-0.2,0h-0.1v-0.2h1.2v0.2c-0.1,0-0.2,0-0.2,0
		c-0.1,0-0.1,0-0.1,0.1c0,0-0.1,0.1-0.1,0.2l-1,1.7v1c0,0.1,0,0.2,0,0.3c0,0,0.1,0.1,0.1,0.1c0,0,0.2,0,0.3,0v0.2h-1.5v-0.2h0.1
		c0.1,0,0.2,0,0.2,0c0,0,0.1-0.1,0.1-0.1c0,0,0-0.1,0-0.3v-0.9l-1-1.8c-0.1-0.1-0.1-0.2-0.2-0.3c-0.1,0-0.2,0-0.3,0V22.8z"/>
	<path fill="#1D1D1B" d="M69.7,22.8h1.5v0.2h-0.1c-0.1,0-0.2,0-0.3,0c0,0-0.1,0-0.1,0.1c0,0,0,0.1,0,0.3v1.7c0,0.3,0,0.5,0.1,0.7
		c0.1,0.1,0.2,0.3,0.4,0.4c0.2,0.1,0.4,0.1,0.6,0.1c0.2,0,0.4-0.1,0.6-0.2c0.2-0.1,0.3-0.2,0.4-0.4c0.1-0.1,0.1-0.4,0.1-0.7v-1.6
		c0-0.1,0-0.2,0-0.3c0,0-0.1-0.1-0.1-0.1c0,0-0.1,0-0.2,0h-0.1v-0.2h1.3v0.2h-0.1c-0.1,0-0.2,0-0.3,0.1c-0.1,0.1-0.1,0.2-0.1,0.3
		v1.7c0,0.3-0.1,0.6-0.2,0.8c-0.1,0.2-0.3,0.4-0.5,0.5c-0.2,0.1-0.5,0.2-0.8,0.2c-0.3,0-0.5-0.1-0.8-0.2c-0.2-0.1-0.4-0.3-0.5-0.5
		c-0.1-0.2-0.2-0.4-0.2-0.7v-1.9c0-0.1,0-0.2,0-0.3c0,0-0.1-0.1-0.1-0.1c0,0-0.1,0-0.2,0h-0.1V22.8z"/>
	<path fill="#1D1D1B" d="M74.1,22.8h2c0.4,0,0.6,0,0.8,0.1c0.2,0.1,0.3,0.2,0.4,0.3c0.1,0.1,0.2,0.3,0.2,0.5c0,0.2-0.1,0.4-0.2,0.5
		c-0.1,0.2-0.2,0.3-0.4,0.4c-0.2,0.1-0.4,0.1-0.7,0.1l1,1.2c0.1,0.1,0.1,0.2,0.2,0.2c0.1,0.1,0.1,0.1,0.2,0.1c0.1,0,0.1,0,0.2,0h0.1
		v0.2H77l-1.4-1.8h-0.5V26c0,0.1,0,0.2,0,0.2c0,0.1,0.1,0.1,0.1,0.1c0,0,0.1,0,0.3,0h0.1v0.2h-1.4v-0.2h0.1c0.1,0,0.2,0,0.2,0
		c0,0,0.1,0,0.1-0.1c0,0,0-0.1,0.1-0.1c0,0,0-0.1,0-0.3v-2.5c0-0.1,0-0.2,0-0.2c0,0-0.1-0.1-0.1-0.1c0,0-0.1,0-0.2,0h-0.2V22.8z
		 M75.1,23.1v1.4h0.8c0.3,0,0.5,0,0.6,0c0.2,0,0.3-0.1,0.4-0.2c0.1-0.1,0.1-0.3,0.1-0.4c0-0.2,0-0.3-0.1-0.4
		c-0.1-0.1-0.2-0.2-0.3-0.2c-0.1-0.1-0.3-0.1-0.5-0.1H75.1z"/>
	<path fill="#1D1D1B" d="M78.1,22.8h1.8c0.4,0,0.7,0,0.9,0.1c0.2,0.1,0.4,0.2,0.6,0.3c0.1,0.2,0.2,0.3,0.2,0.5c0,0.2,0,0.3-0.1,0.4
		c-0.1,0.1-0.2,0.2-0.3,0.3c-0.1,0.1-0.2,0.1-0.4,0.1c0.2,0,0.3,0.1,0.4,0.1c0.2,0.1,0.3,0.2,0.4,0.3c0.1,0.1,0.1,0.3,0.1,0.5
		c0,0.2,0,0.3-0.1,0.5c-0.1,0.1-0.2,0.3-0.4,0.4c-0.2,0.1-0.3,0.2-0.6,0.2c-0.2,0-0.4,0-0.7,0h-1.9v-0.2h0.1c0.1,0,0.2,0,0.3-0.1
		c0.1-0.1,0.1-0.1,0.1-0.3v-2.6c0-0.1,0-0.2,0-0.3c0,0,0-0.1-0.1-0.1c0,0-0.1,0-0.2,0h-0.1V22.8z M79.1,23.1v1.4h0.7
		c0.3,0,0.5,0,0.7,0c0.2,0,0.3-0.1,0.4-0.2C81,24.1,81,24,81,23.8c0-0.2,0-0.3-0.1-0.4c-0.1-0.1-0.2-0.2-0.4-0.2c-0.1,0-0.3,0-0.6,0
		H79.1z M79.1,24.8V26c0,0.1,0,0.2,0,0.2c0,0,0,0.1,0.1,0.1c0,0,0.1,0,0.3,0h0.4c0.4,0,0.6,0,0.8-0.1c0.2,0,0.3-0.1,0.4-0.3
		c0.1-0.1,0.2-0.3,0.2-0.5c0-0.2,0-0.3-0.1-0.4c-0.1-0.1-0.2-0.2-0.4-0.3c-0.2-0.1-0.4-0.1-0.8-0.1H79.1z"/>
	<path fill="#1D1D1B" d="M83.6,22.8h0.4l1.2,3.2c0.1,0.2,0.1,0.3,0.2,0.3c0.1,0.1,0.1,0.1,0.2,0.1h0.1v0.2h-1.3v-0.2
		c0,0,0.1,0,0.1,0c0.1,0,0.1,0,0.2,0c0.1,0,0.1-0.1,0.1-0.1c0,0,0-0.1-0.1-0.3l-0.3-0.7h-1.4L82.8,26c0,0.1,0,0.1,0,0.2
		c0,0,0,0.1,0,0.1c0,0,0,0,0.1,0.1c0,0,0.1,0,0.2,0h0.1v0.2H82v-0.2c0.1,0,0.2,0,0.2,0c0,0,0.1-0.1,0.1-0.1c0,0,0.1-0.1,0.1-0.3
		L83.6,22.8z M83.2,24.9h1.2l-0.6-1.6L83.2,24.9z"/>
	<path fill="#1D1D1B" d="M86,22.8h1.2l1.7,2.8v-2.2c0-0.1,0-0.2,0-0.3c0-0.1-0.1-0.1-0.1-0.1c-0.1,0-0.1,0-0.2,0h-0.1v-0.2h1.3v0.2
		h-0.1c-0.1,0-0.2,0-0.2,0c-0.1,0-0.1,0.1-0.1,0.1c0,0.1,0,0.2,0,0.3v3.1h-0.3l-2.1-3.4v2.7c0,0.2,0,0.2,0,0.3c0,0,0,0.1,0.1,0.1
		c0,0,0.1,0.1,0.1,0.1c0,0,0.1,0,0.3,0v0.2H86v-0.2h0.1c0.1,0,0.2,0,0.3,0c0,0,0.1-0.1,0.1-0.1c0-0.1,0-0.2,0-0.3v-2.4
		c0-0.2,0-0.2,0-0.3c0-0.1,0-0.1-0.1-0.1c0,0-0.1,0-0.3,0H86V22.8z"/>
	<path fill="#1D1D1B" d="M91.5,22.8H92l1.2,3.2c0.1,0.2,0.1,0.3,0.2,0.3c0.1,0.1,0.1,0.1,0.2,0.1h0.1v0.2h-1.3v-0.2c0,0,0.1,0,0.1,0
		c0.1,0,0.1,0,0.2,0c0.1,0,0.1-0.1,0.1-0.1c0,0,0-0.1-0.1-0.3l-0.3-0.7H91L90.7,26c0,0.1,0,0.1,0,0.2c0,0,0,0.1,0,0.1
		c0,0,0,0,0.1,0.1c0,0,0.1,0,0.2,0H91v0.2h-1.1v-0.2c0.1,0,0.2,0,0.2,0c0,0,0.1-0.1,0.1-0.1c0,0,0.1-0.1,0.1-0.3L91.5,22.8z
		 M91.1,24.9h1.2l-0.6-1.6L91.1,24.9z"/>
	<path fill="#1D1D1B" d="M69.5,13.7l1.6,1.6c-0.9,1-1.8,1.8-2.8,2.3c-0.9,0.5-2,0.7-3.1,0.7c-1.8,0-3.2-0.6-4.4-1.8
		c-1.2-1.2-1.8-2.6-1.8-4.3c0-1.1,0.3-2.1,0.8-3C60.3,8.2,61.1,7.5,62,7c1-0.5,2-0.8,3.3-0.8c0.8,0,1.5,0.1,2.1,0.3
		c0.6,0.2,1.2,0.5,1.7,1c0.5,0.4,0.9,0.9,1.1,1.5c0.3,0.6,0.5,1.2,0.6,1.8c0,0.3,0.1,0.8,0.1,1.5h-7.8c0,1,0.3,1.8,0.9,2.4
		c0.6,0.6,1.2,0.9,2.1,0.9c0.5,0,1.1-0.2,1.7-0.5C68.3,14.8,68.9,14.4,69.5,13.7 M67.2,10.4c-0.1-0.5-0.2-0.8-0.3-1.1
		c-0.2-0.3-0.4-0.5-0.7-0.6c-0.3-0.2-0.6-0.2-0.9-0.2c-0.3,0-0.6,0.1-0.9,0.2C64,8.8,63.8,9,63.6,9.3c-0.2,0.3-0.3,0.6-0.4,1.1H67.2
		z"/>
	<path fill="#1D1D1B" d="M79.6,6.5v2.4h-1.9v5.7c0,0.5,0,0.7,0.1,0.8c0.1,0.1,0.1,0.2,0.3,0.3c0.1,0.1,0.4,0.1,0.8,0.1h0.6V18h-7.1
		v-2.2h0.6c0.5,0,0.7,0,0.8-0.1c0.1,0,0.2-0.1,0.2-0.2c0-0.1,0.1-0.4,0.1-0.9V8.9h-1.7V6.5H74V5.3c0-0.9,0.2-1.5,0.5-2.1
		c0.4-0.6,0.9-1.2,1.7-1.6C77,1.2,77.9,1,79,1c1.2,0,2.1,0.2,2.7,0.7c0.7,0.5,1,1,1,1.6c0,0.5-0.1,0.9-0.4,1.1C82,4.8,81.6,5,81.1,5
		c-0.2,0-0.4,0-0.6-0.1c-0.2-0.1-0.4-0.1-0.5-0.3c-0.1-0.1-0.3-0.3-0.6-0.6c-0.3-0.3-0.4-0.5-0.5-0.5c-0.1-0.1-0.2-0.1-0.3-0.1
		c-0.3,0-0.5,0.1-0.6,0.4c-0.2,0.2-0.2,0.7-0.2,1.4v1.2H79.6z"/>
	<path fill="#1D1D1B" d="M91.2,13.7l1.6,1.6c-0.9,1-1.8,1.8-2.8,2.3c-0.9,0.5-2,0.7-3.1,0.7c-1.8,0-3.2-0.6-4.4-1.8
		c-1.2-1.2-1.8-2.6-1.8-4.3c0-1.1,0.3-2.1,0.8-3C82,8.2,82.8,7.5,83.7,7c1-0.5,2-0.8,3.3-0.8c0.8,0,1.5,0.1,2.1,0.3
		c0.6,0.2,1.2,0.5,1.7,1c0.5,0.4,0.9,0.9,1.1,1.5c0.3,0.6,0.5,1.2,0.6,1.8c0,0.3,0.1,0.8,0.1,1.5h-7.8c0,1,0.3,1.8,0.9,2.4
		c0.6,0.6,1.2,0.9,2.1,0.9c0.5,0,1.1-0.2,1.7-0.5C90,14.8,90.6,14.4,91.2,13.7 M88.9,10.4c-0.1-0.5-0.2-0.8-0.3-1.1
		c-0.2-0.3-0.4-0.5-0.7-0.6c-0.3-0.2-0.6-0.2-0.9-0.2c-0.3,0-0.6,0.1-0.9,0.2c-0.3,0.2-0.5,0.4-0.7,0.7C85.1,9.6,85,9.9,85,10.4
		H88.9z"/>
	<path fill="#1D1D1B" d="M8.7,1.6c2.6,0,4.6,0.8,6.2,2.3c1.6,1.6,2.4,3.6,2.4,6c0,1.6-0.4,3.1-1.1,4.4c-0.7,1.3-1.7,2.3-3,2.9
		c-1.3,0.7-2.8,1-4.6,1c-2.4,0-4.3-0.7-5.9-2C0.9,14.7,0,12.6,0,10c0-2.5,0.8-4.5,2.4-6C4,2.4,6.1,1.6,8.7,1.6 M8.8,4.2
		c-1.2,0-2.2,0.5-2.9,1.4C4.9,6.7,4.5,8.2,4.5,10c0,1.8,0.4,3.3,1.3,4.3c0.7,0.9,1.7,1.4,2.9,1.4c1.2,0,2.2-0.5,2.9-1.4
		c0.9-1.1,1.3-2.5,1.3-4.4c0-1.3-0.2-2.4-0.6-3.2c-0.4-0.9-0.9-1.5-1.5-2C10.2,4.4,9.5,4.2,8.8,4.2"/>
	<path fill="#1D1D1B" d="M1.1,22.8h1.4v0.2H2.5c-0.1,0-0.2,0-0.2,0c0,0-0.1,0.1-0.1,0.1c0,0.1,0,0.2,0,0.3V26c0,0.1,0,0.2,0,0.3
		c0,0.1,0.1,0.1,0.1,0.1c0,0,0.1,0,0.2,0h0.1v0.2H1.1v-0.2h0.1c0.1,0,0.2,0,0.2,0c0,0,0.1-0.1,0.1-0.1c0,0,0-0.1,0-0.3v-2.5
		c0-0.1,0-0.2,0-0.3c0,0,0-0.1-0.1-0.1c0,0-0.1,0-0.2,0H1.1V22.8z"/>
	<path fill="#1D1D1B" d="M3,22.8h1.2l1.7,2.8v-2.2c0-0.1,0-0.2,0-0.3c0-0.1-0.1-0.1-0.1-0.1c-0.1,0-0.1,0-0.2,0H5.5v-0.2h1.3v0.2
		H6.7c-0.1,0-0.2,0-0.2,0c-0.1,0-0.1,0.1-0.1,0.1c0,0.1,0,0.2,0,0.3v3.1H5.9l-2.1-3.4v2.7c0,0.2,0,0.2,0,0.3c0,0,0,0.1,0.1,0.1
		c0,0,0.1,0.1,0.1,0.1c0,0,0.1,0,0.3,0v0.2H3v-0.2h0.1c0.1,0,0.2,0,0.3,0c0,0,0.1-0.1,0.1-0.1c0-0.1,0-0.2,0-0.3v-2.4
		c0-0.2,0-0.2,0-0.3c0-0.1,0-0.1-0.1-0.1c0,0-0.1,0-0.3,0H3V22.8z"/>
	<path fill="#1D1D1B" d="M7.2,22.8h1.2l1.1,3l1.1-3h1.2v0.2h-0.1c-0.1,0-0.2,0-0.2,0c0,0-0.1,0.1-0.1,0.1c0,0.1,0,0.1,0,0.2v2.5
		c0,0.2,0,0.3,0,0.3c0,0,0,0.1,0.1,0.1c0,0,0.1,0,0.2,0h0.1v0.2h-1.4v-0.2h0.1c0.1,0,0.2,0,0.2,0c0,0,0.1,0,0.1-0.1c0,0,0-0.1,0-0.1
		c0-0.1,0-0.1,0-0.2v-2.8l-1.2,3.4H9.3L8,23.3V26c0,0.1,0,0.2,0,0.3c0,0,0.1,0.1,0.1,0.1c0.1,0,0.1,0,0.3,0h0.1v0.2H7.2v-0.2h0.1
		c0.1,0,0.2,0,0.3,0c0.1,0,0.1-0.1,0.1-0.1c0,0,0-0.1,0-0.3v-2.5c0-0.1,0-0.2,0-0.3c0,0-0.1-0.1-0.1-0.1c0,0-0.1,0-0.2,0H7.2V22.8z"
		/>
	<path fill="#1D1D1B" d="M14.3,22.8c0.3,0,0.7,0.1,0.9,0.3c0.3,0.2,0.5,0.4,0.7,0.7c0.2,0.3,0.2,0.6,0.2,1c0,0.6-0.2,1.1-0.5,1.4
		c-0.4,0.4-0.8,0.6-1.4,0.6c-0.6,0-1.1-0.2-1.5-0.7c-0.3-0.4-0.4-0.8-0.4-1.3c0-0.4,0.1-0.7,0.3-1c0.2-0.3,0.4-0.5,0.7-0.7
		C13.6,22.8,13.9,22.8,14.3,22.8 M14.3,23.1c-0.3,0-0.5,0.1-0.7,0.2c-0.2,0.1-0.4,0.3-0.5,0.6c-0.1,0.3-0.2,0.6-0.2,0.9
		c0,0.4,0.1,0.7,0.2,0.9c0.1,0.2,0.3,0.4,0.5,0.6c0.2,0.1,0.4,0.2,0.7,0.2c0.3,0,0.5-0.1,0.7-0.2c0.2-0.1,0.4-0.3,0.5-0.6
		c0.1-0.3,0.2-0.6,0.2-0.9c0-0.3-0.1-0.7-0.2-0.9c-0.1-0.2-0.3-0.4-0.4-0.5C14.8,23.1,14.6,23.1,14.3,23.1"/>
	<path fill="#1D1D1B" d="M16.7,22.8h1.8c0.4,0,0.7,0,0.9,0.1c0.2,0.1,0.4,0.2,0.6,0.3c0.1,0.2,0.2,0.3,0.2,0.5c0,0.2,0,0.3-0.1,0.4
		c-0.1,0.1-0.2,0.2-0.3,0.3c-0.1,0.1-0.2,0.1-0.4,0.1c0.2,0,0.3,0.1,0.5,0.1c0.2,0.1,0.3,0.2,0.4,0.3c0.1,0.1,0.1,0.3,0.1,0.5
		c0,0.2,0,0.3-0.1,0.5c-0.1,0.1-0.2,0.3-0.4,0.4c-0.2,0.1-0.4,0.2-0.6,0.2c-0.2,0-0.4,0-0.7,0h-1.9v-0.2h0.1c0.1,0,0.2,0,0.3-0.1
		c0.1-0.1,0.1-0.1,0.1-0.3v-2.6c0-0.1,0-0.2,0-0.3c0,0,0-0.1-0.1-0.1c0,0-0.1,0-0.2,0h-0.1V22.8z M17.7,23.1v1.4h0.7
		c0.3,0,0.5,0,0.7,0c0.2,0,0.3-0.1,0.4-0.2c0.1-0.1,0.2-0.3,0.2-0.5c0-0.2,0-0.3-0.1-0.4c-0.1-0.1-0.2-0.2-0.4-0.2
		c-0.1,0-0.3,0-0.6,0H17.7z M17.7,24.8V26c0,0.1,0,0.2,0,0.2c0,0,0,0.1,0.1,0.1c0,0,0.1,0,0.3,0h0.4c0.4,0,0.6,0,0.8-0.1
		c0.2,0,0.3-0.1,0.4-0.3c0.1-0.1,0.2-0.3,0.2-0.5c0-0.2,0-0.3-0.1-0.4c-0.1-0.1-0.2-0.2-0.4-0.3c-0.2-0.1-0.4-0.1-0.8-0.1H17.7z"/>
	<path fill="#1D1D1B" d="M20.8,22.8h1.5v0.2h-0.1c-0.1,0-0.2,0-0.2,0c0,0-0.1,0.1-0.1,0.1c0,0.1,0,0.2,0,0.3V26c0,0.1,0,0.2,0,0.3
		c0,0.1,0.1,0.1,0.1,0.1c0,0,0.1,0,0.2,0h0.1v0.2h-1.5v-0.2h0.1c0.1,0,0.2,0,0.2,0c0,0,0.1-0.1,0.1-0.1c0,0,0-0.1,0-0.3v-2.5
		c0-0.1,0-0.2,0-0.3c0,0-0.1-0.1-0.1-0.1c0,0-0.1,0-0.2,0h-0.1V22.8z"/>
	<path fill="#1D1D1B" d="M22.7,22.8h1.5v0.2h-0.1c-0.1,0-0.2,0-0.2,0c0,0-0.1,0-0.1,0.1c0,0,0,0.1,0,0.2V26c0,0.1,0,0.2,0,0.2
		c0,0,0,0.1,0.1,0.1c0,0,0.1,0,0.2,0h0.2c0.2,0,0.4,0,0.6-0.1c0.2-0.1,0.3-0.2,0.4-0.3c0.1-0.1,0.2-0.3,0.4-0.6l0.2,0.1l-0.4,1.2
		h-2.7v-0.2h0.1c0.1,0,0.2,0,0.2,0c0,0,0.1-0.1,0.1-0.1c0,0,0-0.1,0-0.2v-2.6c0-0.1,0-0.2,0-0.3c0,0,0-0.1-0.1-0.1c0,0-0.1,0-0.2,0
		h-0.1V22.8z"/>
	<path fill="#1D1D1B" d="M26,22.8h1.4v0.2h-0.1c-0.1,0-0.2,0-0.2,0c0,0-0.1,0.1-0.1,0.1c0,0.1,0,0.2,0,0.3V26c0,0.1,0,0.2,0,0.3
		c0,0.1,0.1,0.1,0.1,0.1c0,0,0.1,0,0.2,0h0.1v0.2H26v-0.2h0.1c0.1,0,0.2,0,0.2,0c0,0,0.1-0.1,0.1-0.1c0,0,0-0.1,0-0.3v-2.5
		c0-0.1,0-0.2,0-0.3c0,0-0.1-0.1-0.1-0.1c0,0-0.1,0-0.2,0H26V22.8z"/>
	<path fill="#1D1D1B" d="M29.4,22.8h0.4L31,26c0.1,0.2,0.1,0.3,0.2,0.3c0.1,0.1,0.1,0.1,0.2,0.1h0.1v0.2h-1.3v-0.2c0,0,0.1,0,0.1,0
		c0.1,0,0.1,0,0.2,0c0.1,0,0.1-0.1,0.1-0.1c0,0,0-0.1-0.1-0.3l-0.2-0.7h-1.4L28.5,26c0,0.1,0,0.1,0,0.2c0,0,0,0.1,0,0.1
		c0,0,0,0,0.1,0.1c0,0,0.1,0,0.2,0h0.1v0.2h-1.1v-0.2c0.1,0,0.2,0,0.2,0c0,0,0.1-0.1,0.1-0.1c0,0,0.1-0.1,0.1-0.3L29.4,22.8z
		 M28.9,24.9h1.2l-0.6-1.6L28.9,24.9z"/>
	<path fill="#1D1D1B" d="M31.8,22.8h2c0.4,0,0.7,0,0.8,0.1c0.2,0.1,0.3,0.2,0.4,0.3c0.1,0.1,0.2,0.3,0.2,0.5c0,0.2,0,0.4-0.2,0.5
		c-0.1,0.2-0.2,0.3-0.4,0.4c-0.2,0.1-0.4,0.1-0.7,0.1l1,1.2c0.1,0.1,0.1,0.2,0.2,0.2c0.1,0.1,0.1,0.1,0.2,0.1c0.1,0,0.1,0,0.2,0h0.1
		v0.2h-0.9l-1.4-1.8h-0.5V26c0,0.1,0,0.2,0,0.2c0,0.1,0.1,0.1,0.1,0.1c0,0,0.1,0,0.3,0h0.1v0.2h-1.4v-0.2h0.1c0.1,0,0.2,0,0.2,0
		c0,0,0.1,0,0.1-0.1c0,0,0-0.1,0.1-0.1c0,0,0-0.1,0-0.3v-2.5c0-0.1,0-0.2,0-0.2c0,0-0.1-0.1-0.1-0.1c0,0-0.1,0-0.2,0h-0.2V22.8z
		 M32.7,23.1v1.4h0.8c0.3,0,0.5,0,0.6,0c0.2,0,0.3-0.1,0.4-0.2c0.1-0.1,0.1-0.3,0.1-0.4c0-0.2,0-0.3-0.1-0.4
		c-0.1-0.1-0.2-0.2-0.3-0.2c-0.1-0.1-0.3-0.1-0.5-0.1H32.7z"/>
	<path fill="#1D1D1B" d="M35.7,22.8h1.4v0.2h-0.1c-0.1,0-0.2,0-0.2,0c0,0-0.1,0.1-0.1,0.1c0,0.1,0,0.2,0,0.3V26c0,0.1,0,0.2,0,0.3
		c0,0.1,0.1,0.1,0.1,0.1c0,0,0.1,0,0.2,0h0.1v0.2h-1.4v-0.2h0.1c0.1,0,0.2,0,0.2,0c0,0,0.1-0.1,0.1-0.1c0,0,0-0.1,0-0.3v-2.5
		c0-0.1,0-0.2,0-0.3c0,0-0.1-0.1-0.1-0.1c0,0-0.1,0-0.2,0h-0.1V22.8z"/>
	<path fill="#1D1D1B" d="M39.1,22.8h0.4l1.2,3.2c0.1,0.2,0.1,0.3,0.2,0.3c0.1,0.1,0.1,0.1,0.2,0.1h0.1v0.2h-1.3v-0.2
		c0,0,0.1,0,0.1,0c0.1,0,0.1,0,0.2,0c0.1,0,0.1-0.1,0.1-0.1c0,0,0-0.1-0.1-0.3l-0.2-0.7h-1.4L38.2,26c0,0.1,0,0.1,0,0.2
		c0,0,0,0.1,0,0.1c0,0,0,0,0.1,0.1c0,0,0.1,0,0.2,0h0.1v0.2h-1.1v-0.2c0.1,0,0.2,0,0.2,0c0,0,0.1-0.1,0.1-0.1c0,0,0.1-0.1,0.1-0.3
		L39.1,22.8z M38.6,24.9h1.2l-0.6-1.6L38.6,24.9z"/>
	<path fill="#1D1D1B" d="M43.2,22.8h2c0.4,0,0.7,0,0.8,0.1c0.2,0.1,0.3,0.2,0.4,0.3c0.1,0.1,0.2,0.3,0.2,0.5c0,0.2,0,0.4-0.1,0.5
		c-0.1,0.2-0.2,0.3-0.4,0.4c-0.2,0.1-0.4,0.1-0.7,0.1l1,1.2c0.1,0.1,0.1,0.2,0.2,0.2c0.1,0.1,0.1,0.1,0.2,0.1c0.1,0,0.1,0,0.2,0h0.1
		v0.2h-0.9l-1.4-1.8h-0.5V26c0,0.1,0,0.2,0,0.2c0,0.1,0.1,0.1,0.1,0.1c0,0,0.1,0,0.3,0h0.1v0.2h-1.5v-0.2h0.1c0.1,0,0.2,0,0.2,0
		c0,0,0.1,0,0.1-0.1c0,0,0-0.1,0.1-0.1c0,0,0-0.1,0-0.3v-2.5c0-0.1,0-0.2,0-0.2c0,0-0.1-0.1-0.1-0.1c0,0-0.1,0-0.2,0h-0.2V22.8z
		 M44.2,23.1v1.4H45c0.3,0,0.5,0,0.6,0c0.2,0,0.3-0.1,0.4-0.2C46,24.1,46,24,46,23.8c0-0.2,0-0.3-0.1-0.4c-0.1-0.1-0.2-0.2-0.3-0.2
		c-0.1-0.1-0.3-0.1-0.5-0.1H44.2z"/>
	<path fill="#1D1D1B" d="M47.2,22.8h1.5v0.2h-0.1c-0.1,0-0.2,0-0.3,0c0,0-0.1,0-0.1,0.1c0,0,0,0.1,0,0.3v1.7c0,0.3,0,0.5,0.1,0.7
		c0.1,0.1,0.2,0.3,0.4,0.4c0.2,0.1,0.4,0.1,0.6,0.1c0.2,0,0.4-0.1,0.6-0.2c0.2-0.1,0.3-0.2,0.4-0.4c0.1-0.1,0.1-0.4,0.1-0.7v-1.6
		c0-0.1,0-0.2,0-0.3c0,0-0.1-0.1-0.1-0.1c0,0-0.1,0-0.2,0h-0.1v-0.2h1.3v0.2H51c-0.1,0-0.2,0-0.3,0.1c-0.1,0.1-0.1,0.2-0.1,0.3v1.7
		c0,0.3-0.1,0.6-0.2,0.8c-0.1,0.2-0.3,0.4-0.5,0.5c-0.2,0.1-0.5,0.2-0.8,0.2c-0.3,0-0.5-0.1-0.8-0.2c-0.2-0.1-0.4-0.3-0.5-0.5
		c-0.1-0.2-0.2-0.4-0.2-0.7v-1.9c0-0.1,0-0.2,0-0.3c0,0-0.1-0.1-0.1-0.1c0,0-0.1,0-0.2,0h-0.1V22.8z"/>
	<path fill="#1D1D1B" d="M27.4,1.9h7.9v2.2h-0.5c-0.5,0-0.8,0-0.9,0.1c-0.2,0.1-0.3,0.2-0.4,0.4c-0.1,0.2-0.1,0.4-0.1,0.9v4.3l5-4.7
		c0.2-0.2,0.4-0.3,0.4-0.4c0-0.1,0.1-0.1,0.1-0.2c0-0.1,0-0.2-0.1-0.2c-0.1-0.1-0.3-0.1-0.7-0.1h-0.6V1.9h7.3v2.2h-0.2
		c-0.3,0-0.6,0-0.7,0c-0.1,0-0.3,0.1-0.5,0.2c-0.2,0.1-0.4,0.3-0.7,0.6l-3.9,3.4l4.7,6.3c0.4,0.5,0.7,0.9,0.9,1
		c0.2,0.1,0.6,0.2,1.1,0.2h0.3V18h-8.1v-2.2h0.3c0.6,0,1,0,1.1-0.1c0.1-0.1,0.2-0.1,0.2-0.2c0-0.1-0.1-0.3-0.4-0.7l-2.8-4l-2.4,2.1
		v1.6c0,0.4,0,0.7,0.1,0.8c0.1,0.2,0.2,0.3,0.3,0.3c0.1,0.1,0.4,0.1,0.9,0.1h0.7V18h-7.9v-2.2H28c0.5,0,0.8,0,0.9-0.1
		c0.2-0.1,0.3-0.2,0.3-0.4c0.1-0.1,0.1-0.4,0.1-0.9V5.5c0-0.5,0-0.8-0.1-1c-0.1-0.2-0.2-0.3-0.3-0.4c-0.2-0.1-0.4-0.1-0.8-0.1h-0.7
		V1.9z"/>
	<path fill="#1D1D1B" d="M56.3,13.7l1.6,1.6c-0.9,1-1.8,1.8-2.8,2.3c-0.9,0.5-2,0.7-3.1,0.7c-1.8,0-3.2-0.6-4.4-1.8
		c-1.2-1.2-1.8-2.6-1.8-4.3c0-1.1,0.3-2.1,0.8-3c0.5-0.9,1.3-1.6,2.2-2.2c1-0.5,2-0.8,3.2-0.8c0.8,0,1.5,0.1,2.1,0.3
		c0.6,0.2,1.2,0.5,1.7,1C56.3,7.9,56.7,8.4,57,9c0.3,0.6,0.5,1.2,0.6,1.8c0,0.3,0.1,0.8,0.1,1.5h-7.8c0,1,0.3,1.8,0.9,2.4
		c0.6,0.6,1.2,0.9,2.1,0.9c0.5,0,1.1-0.2,1.7-0.5C55.1,14.8,55.7,14.4,56.3,13.7 M54,10.4c-0.1-0.5-0.2-0.8-0.3-1.1
		C53.5,9,53.2,8.8,53,8.6c-0.3-0.2-0.6-0.2-0.9-0.2c-0.3,0-0.6,0.1-0.9,0.2c-0.3,0.2-0.5,0.4-0.7,0.7c-0.2,0.3-0.3,0.6-0.4,1.1H54z"
		/>
	<path fill-rule="evenodd" clip-rule="evenodd" fill="#1D1D1B" d="M21.6,7.8l-1-1.2c0.8-0.8,1.3-1.3,1.5-1.6
		c0.2-0.3,0.4-0.7,0.5-1.1c-0.1,0.1-0.2,0.1-0.4,0.2c-0.1,0-0.2,0.1-0.4,0.1c-0.4,0-0.7-0.1-0.9-0.5c-0.3-0.3-0.4-0.7-0.4-1.1
		c0-0.5,0.2-0.9,0.5-1.3c0.3-0.3,0.8-0.5,1.3-0.5c0.4,0,0.7,0.1,1.1,0.3C23.7,1.4,24,1.7,24.1,2c0.2,0.4,0.3,0.8,0.3,1.3
		c0,0.8-0.3,1.6-0.8,2.4C23.1,6.5,22.4,7.2,21.6,7.8"/>
</g>
</svg>
