<?xml version="1.0" encoding="utf-8"?>
<!-- Generator: Adobe Illustrator 18.0.0, SVG Export Plug-In . SVG Version: 6.00 Build 0)  -->
<!DOCTYPE svg PUBLIC "-//W3C//DTD SVG 1.1//EN" "http://www.w3.org/Graphics/SVG/1.1/DTD/svg11.dtd">
<svg version="1.1" id="Layer_1" xmlns="http://www.w3.org/2000/svg" xmlns:xlink="http://www.w3.org/1999/xlink" x="0px" y="0px"
	 viewBox="0 0 96.9 96.9" enable-background="new 0 0 96.9 96.9" xml:space="preserve">
<path fill="#808285" d="M72.7,96.9c-5.6,0-10.7-1.9-14.8-5c-3,0.6-6.2,1-9.5,1C23.9,92.9,4,73,4,48.5C4,45.2,4.4,42,5,39
	c-3.2-4.1-5-9.2-5-14.8C0,10.9,10.9,0,24.2,0C29.8,0,34.9,1.9,39,5c3-0.6,6.2-1,9.5-1C73,4,92.9,23.9,92.9,48.5c0,3.2-0.4,6.4-1,9.5
	c3.2,4.1,5,9.2,5,14.8C96.9,86.1,86.1,96.9,72.7,96.9z M54.4,42.2l-6.6-1.5c-4.8-1.1-8.4-2-8.4-5.6c0-3.3,3.5-4.9,9.1-4.9
	c9.9,0,10.1,7.3,16.2,7.3c4.1,0,6.6-3.2,6.6-6.9c0-7.3-12-12-24-12c-10.9,0-23.6,4.7-23.6,17.5c0,10.6,7.1,14.4,16.3,16.6l9.2,2.3
	c5.6,1.4,9.1,2,9.1,6.1c0,3.2-3.6,5.7-9.1,5.7c-11.7,0-12.3-9.7-19.1-9.7c-4.4,0-6.4,3.2-6.4,6.6c0,7.8,11.9,14.1,26.1,14.1
	C61.6,77.7,74,71.8,74,59C74,48,63.3,44.2,54.4,42.2z"/>
</svg>
